# AST/ASF file generated using VICON BodyLanguage
# -----------------------------------------------
:version 1.10
:name VICON
:units
  mass 1.0
  length 0.45
  angle deg
:documentation
   .ast/.asf automatically generated from VICON data using
   VICON BodyBuilder and BodyLanguage model FoxedUp or BRILLIANT.MOD
:root
   order TX TY TZ RX RY RZ
   axis XYZ
   position 0 0 0  
   orientation 0 0 0 
:bonedata
  begin
     id 1 
     name lhipjoint
     direction 0.682418 -0.694059 0.22932 
     length 2.25561 
     axis 0 0 0  XYZ
  end
  begin
     id 2 
     name lfemur
     direction 0.34202 -0.939693 0  
     length 6.96448  
     axis 0 0 20  XYZ
    dof rx ry rz
    limits (-160.0 20.0)
           (-70.0 70.0)
           (-60.0 70.0)
  end
  begin
     id 3 
     name ltibia
     direction 0.34202 -0.939693 0   
     length 6.88553   
     axis 0 0 20   XYZ
    dof rx
    limits (-10.0 170.0)
  end
  begin
     id 4 
     name lfoot
     direction 0.0723587 -0.198804 0.977364   
     length 1.88518   
     axis -90 7.62852e-016 20   XYZ
    dof rx rz
    limits (-45.0 90.0)
           (-70.0 20.0)
  end
  begin
     id 5 
     name ltoes
     direction 1.53558e-011 -4.21962e-011 1   
     length 0.952124   
     axis -90 7.62852e-016 20   XYZ
    dof rx
    limits (-90.0 20.0)
  end
  begin
     id 6 
     name rhipjoint
     direction -0.657603 -0.71533 0.236348   
     length 2.18854  
     axis 0 0 0  XYZ 
  end
  begin
     id 7 
     name rfemur
     direction -0.34202 -0.939693 0   
     length 6.86686   
     axis 0 0 -20   XYZ
    dof rx ry rz
    limits (-160.0 20.0)
           (-70.0 70.0)
           (-70.0 60.0)
  end
  begin
     id 8 
     name rtibia
     direction -0.34202 -0.939693 0   
     length 6.59503   
     axis 0 0 -20   XYZ
    dof rx
    limits (-10.0 170.0)
 end
 begin
     id 9 
     name rfoot
     direction -0.101977 -0.280179 0.954516   
     length 1.93723  
     axis -90 -7.62852e-016 -20   XYZ
    dof rx rz
    limits (-45.0 90.0)
           (-20.0 70.0)
  end
  begin
     id 10 
     name rtoes
     direction -1.53564e-011 -4.21897e-011 1   
     length 0.970315   
     axis -90 -7.62852e-016 -20   XYZ
    dof rx
    limits (-90.0 20.0)
  end
  begin
     id 11 
     name lowerback
     direction -0.0339559 0.999421 -0.00235966   
     length 1.88543   
     axis 0 0 0   XYZ
    dof rx ry rz
    limits (-20.0 45.0)
           (-30.0 30.0)
           (-30.0 30.0)
  end
  begin
     id 12 
     name upperback
     direction 0.00401003 0.999739 0.0224689   
     length 1.8856   
     axis 0 0 0   XYZ
    dof rx ry rz
    limits (-20.0 45.0)
           (-30.0 30.0)
           (-30.0 30.0)
  end
  begin
     id 13 
     name thorax
     direction 0.0198619 0.999546 0.0226536   
     length 1.88352   
     axis 0 0 0   XYZ
    dof rx ry rz
    limits (-20.0 45.0)
           (-30.0 30.0)
           (-30.0 30.0)
  end
  begin
     id 14 
     name lowerneck
     direction -0.0461848 0.998632 0.0245198   
     length 1.34895   
     axis 0 0 0   XYZ
    dof rx ry rz
    limits (-20.0 45.0)
           (-30.0 30.0)
           (-30.0 30.0)
  end
  begin
     id 15 
     name upperneck
     direction -0.0180627 0.994724 -0.100984   
     length 1.35214   
     axis 0 0 0   XYZ
    dof rx ry rz
    limits (-20.0 45.0)
           (-30.0 30.0)
           (-30.0 30.0)
  end
  begin
     id 16
     name head
     direction -0.00374772 0.999293 -0.037403  
     length 1.3568  
     axis 0 0 0   XYZ
    dof rx ry rz
    limits (-20.0 45.0)
           (-30.0 30.0)
           (-30.0 30.0)
  end
  begin
     id 17 
     name lclavicle
     direction 0.971773 0.191119 0.138311  
     length 2.84954  
     axis 0 0 0   XYZ
    dof ry rz
    limits (-20.0 10.0)
           (0.0 20.0)
  end
  begin
     id 18 
     name lhumerus
     direction 1 -4.4897e-011 -2.43761e-027   
     length 4.40919   
     axis 180 -30 -90   XYZ
    dof rx ry rz
    limits (-60.0 90.0)
           (-90.0 90.0)
           (-90.0 90.0)
  end
  begin
     id 19
     name lradius
     direction 1 -4.4896e-011 -9.1621e-027   
     length 3.03857   
     axis 180 -30 -90   XYZ
    dof rx
    limits (-10.0 170.0)
  end
  begin
     id 20
     name lwrist
     direction 1 -4.4896e-011 -1.41363e-026   
     length 1.51928   
     axis 1.07133e-014 90 90   XYZ
    dof ry
    limits (-180.0 0.0)
 end
  begin
     id 21 
     name lhand
     direction 1 -4.48978e-011 -2.82725e-026   
     length 0.523208   
     axis 1.80403e-014 90 90   XYZ
    dof rx rz
    limits (-90.0 90.0)
           (-45.0 45.0)
  end
  begin
     id 22 
     name lfingers
     direction 1 -4.48977e-011 -5.6545e-026   
     length 0.421824   
     axis 3.60806e-014 90 90   XYZ
    dof rx
    limits (0.0 90.0)
  end
  begin
     id 23
     name lthumb
     direction 0.707107 -6.34962e-011 0.707107   
     length 0.605657   
     axis -90 45 2.85299e-015   XYZ
    dof rx rz
    limits (-45.0 45.0)
           (-45.0 45.0)
  end
  begin
     id 24 
     name rclavicle
     direction -0.957247 0.24311 0.156766   
     length 3.12406  
     axis 0 0 0   XYZ 
    dof ry rz
    limits (-10.0 20.0)
           (-20.0 0.0)
  end
  begin
     id 25 
     name rhumerus
     direction -1 -4.48964e-011 -1.70632e-027  
     length 4.61969   
     axis 180 30 90   XYZ
    dof rx ry rz
    limits (-90.0 60.0)
           (-90.0 90.0)
           (-90.0 90.0)
  end
  begin
     id 26 
     name rradius
     direction -1 -4.48966e-011 -6.60395e-027   
     length 3.09382   
     axis 180 30 90   XYZ
    dof rx
    limits (-10.0 170.0)
  end
  begin
     id 27 
     name rwrist
     direction -1 -4.48963e-011 -1.41363e-026   
     length 1.54691   
     axis 1.07133e-014 -90 -90   XYZ
    dof ry
    limits (-180.0 0.0)
  end
  begin
     id 28
     name rhand
     direction -1 -4.49013e-011 -2.82725e-026   
     length 0.500896   
     axis 1.80403e-014 -90 -90   XYZ
    dof rx rz
    limits (-90.0 90.0)
           (-45.0 45.0)
  end
  begin
     id 29
     name rfingers
     direction -1 -4.48902e-011 -5.6545e-026   
     length 0.403835   
     axis 3.60806e-014 -90 -90   XYZ
    dof rx
    limits (0.0 90.0)
  end
  begin
     id 30
     name rthumb
     direction -0.707107 -6.34953e-011 0.707107   
     length 0.579829   
     axis -90 -45 -2.85299e-015   XYZ
    dof rx rz
    limits (-45.0 45.0)
           (-45.0 45.0)
  end
:hierarchy
  begin
    root lhipjoint rhipjoint lowerback
    lhipjoint lfemur
    lfemur ltibia
    ltibia lfoot
    lfoot ltoes
    rhipjoint rfemur
    rfemur rtibia
    rtibia rfoot
    rfoot rtoes
    lowerback upperback
    upperback thorax
    thorax lowerneck lclavicle rclavicle
    lowerneck upperneck
    upperneck head
    lclavicle lhumerus
    lhumerus lradius
    lradius lwrist
    lwrist lhand lthumb
    lhand lfingers
    rclavicle rhumerus
    rhumerus rradius
    rradius rwrist
    rwrist rhand rthumb
    rhand rfingers
  end

#!OML:ASF E:\madness\Project 1\Capture day 1\Session 1\Female1.ASF
:FULLY-SPECIFIED
:DEGREES
127
root 14.2341 15.8373 -2.2844 -161.619 -82.2726 174.136
lowerback 5.65751 2.25844 -6.9739
upperback 0.601408 2.31739 -4.18156
thorax -2.66341 1.14876 -0.605762
lowerneck -2.81224 11.713 4.10041
upperneck 25.8202 16.4154 -6.15531
head 9.47174 7.14424 -1.29558
rclavicle -1.74931e-014 2.06736e-014
rhumerus -53.3752 -26.7986 -0.190173
rradius 114.116
rwrist -11.0089
rhand 4.91317 -40.7912
rfingers 7.12502
rthumb 30.2871 -68.326
lclavicle -1.74931e-014 2.06736e-014
lhumerus -49.6774 15.9333 23.8126
lradius 109.063
lwrist 3.68056
lhand -27.5717 -9.11123
lfingers 7.12502
lthumb -0.972248 20.8663
rfemur -20.0667 9.52948 19.3071
rtibia 33.5224
rfoot -23.2302 -12.9525
rtoes -1.86998
lfemur -33.6918 -13.997 -7.58823
ltibia 35.2141
lfoot -6.49212 15.629
ltoes -13.3322
128
root 14.2935 15.835 -2.34096 -161.622 -82.2112 174.556
lowerback 5.33532 2.10024 -7.1667
upperback 0.502734 2.12053 -4.2145
thorax -2.58311 1.05233 -0.507273
lowerneck -2.92679 11.8865 3.9525
upperneck 25.6204 16.6622 -6.14056
head 9.42205 7.25394 -1.23708
rclavicle 5.32743e-014 6.36111e-014
rhumerus -53.0589 -26.9107 -0.22459
rradius 113.967
rwrist -11.0914
rhand 4.89787 -40.9149
rfingers 7.12502
rthumb 30.2726 -68.4524
lclavicle 5.32743e-014 6.36111e-014
lhumerus -49.5557 16.1547 23.8173
lradius 109.289
lwrist 4.30799
lhand -27.722 -8.49153
lfingers 7.12502
lthumb -1.11741 21.4853
rfemur -20.6796 9.52589 19.5136
rtibia 33.2404
rfoot -22.8748 -12.889
rtoes -1.4211
lfemur -34.6343 -14.2796 -6.87953
ltibia 35.5459
lfoot -6.10244 15.6253
ltoes -12.8299
129
root 14.3451 15.8408 -2.40116 -162.864 -81.901 175.665
lowerback 5.53542 2.19748 -7.24245
upperback 0.516691 2.20963 -4.38923
thorax -2.68164 1.09422 -0.661428
lowerneck -2.88805 11.9632 4.19194
upperneck 25.5617 16.692 -5.93745
head 9.39832 7.31403 -1.20479
rclavicle 3.29983e-014 -4.6118e-014
rhumerus -53.3704 -27.1457 0.086012
rradius 113.875
rwrist -11.2269
rhand 5.82897 -40.2248
rfingers 7.12502
rthumb 31.1603 -67.5956
lclavicle 3.29983e-014 -4.6118e-014
lhumerus -48.8815 15.972 23.9582
lradius 109.537
lwrist 4.98571
lhand -27.5852 -8.44221
lfingers 7.12502
lthumb -0.985337 21.5353
rfemur -20.6214 9.77819 19.8837
rtibia 33.01
rfoot -22.6909 -12.7861
rtoes -1.20521
lfemur -34.7955 -14.2455 -6.39689
ltibia 35.9843
lfoot -5.67425 15.4951
ltoes -13.867
130
root 14.3962 15.8465 -2.45863 -163.816 -81.7518 176.471
lowerback 5.79902 2.21402 -7.28902
upperback 0.479645 2.18377 -4.5427
thorax -2.86356 1.08214 -0.804342
lowerneck -2.50398 12.0436 4.62225
upperneck 25.3621 16.7753 -6.09191
head 9.31718 7.39382 -1.33732
rclavicle 1.66979e-014 -1.43125e-014
rhumerus -53.658 -27.2554 0.456352
rradius 113.856
rwrist -11.2697
rhand 6.23923 -39.8442
rfingers 7.12502
rthumb 31.5512 -67.1391
lclavicle 1.66979e-014 -1.43125e-014
lhumerus -48.1752 15.6306 24.1655
lradius 109.832
lwrist 5.41229
lhand -27.4559 -8.48491
lfingers 7.12502
lthumb -0.860381 21.4931
rfemur -20.5329 9.9326 20.2522
rtibia 32.8469
rfoot -22.5457 -12.7575
rtoes -1.37296
lfemur -35.0446 -14.3292 -5.98492
ltibia 36.5375
lfoot -4.89614 15.4155
ltoes -15.6907
131
root 14.4501 15.8492 -2.51415 -164.144 -81.6461 176.799
lowerback 5.84597 2.12441 -7.47734
upperback 0.455434 2.03633 -4.62544
thorax -2.9135 1.00958 -0.775955
lowerneck -2.06863 12.1689 4.95525
upperneck 25.019 16.9618 -6.40473
head 9.19009 7.50547 -1.50191
rclavicle -8.34896e-015 3.18055e-014
rhumerus -53.5675 -27.3988 0.608716
rradius 113.831
rwrist -11.2722
rhand 6.29095 -39.7976
rfingers 7.12502
rthumb 31.6005 -67.0828
lclavicle -8.34896e-015 3.18055e-014
lhumerus -47.3277 15.5128 24.5096
lradius 109.888
lwrist 5.42563
lhand -27.8508 -8.34654
lfingers 7.12502
lthumb -1.24181 21.6296
rfemur -20.6153 9.93176 20.512
rtibia 32.6166
rfoot -22.2724 -12.6148
rtoes -1.27831
lfemur -35.5428 -14.6282 -5.50762
ltibia 37.1619
lfoot -4.18368 15.4022
ltoes -16.2877
132
root 14.5036 15.8524 -2.56863 -164.415 -81.6465 177.028
lowerback 5.85619 2.04025 -7.67965
upperback 0.523012 1.9089 -4.66293
thorax -2.84932 0.943548 -0.690687
lowerneck -1.90508 12.2512 4.84894
upperneck 24.7757 17.0313 -6.23933
head 9.05339 7.55993 -1.44058
rclavicle -9.93923e-015 -4.77083e-015
rhumerus -53.5243 -27.7328 0.976176
rradius 113.715
rwrist -11.5056
rhand 7.90998 -37.9308
rfingers 7.12502
rthumb 33.1414 -64.9011
lclavicle -9.93923e-015 -4.77083e-015
lhumerus -46.0338 15.4812 25.1665
lradius 109.712
lwrist 5.06631
lhand -28.1483 -8.32658
lfingers 7.12502
lthumb -1.52913 21.6477
rfemur -20.6648 9.80206 20.7686
rtibia 32.3565
rfoot -22.0275 -12.414
rtoes -0.828727
lfemur -36.0524 -15.0111 -5.00497
ltibia 37.8276
lfoot -3.36782 15.2604
ltoes -16.1933
133
root 14.5459 15.8633 -2.62013 -165.234 -81.7713 177.367
lowerback 6.08186 1.98839 -7.7944
upperback 0.897957 1.82867 -4.6556
thorax -2.58543 0.888286 -0.610985
lowerneck -2.15075 12.3526 4.66562
upperneck 24.7215 17.147 -6.04916
head 9.05083 7.61404 -1.32386
rclavicle -1.51076e-014 -2.54444e-014
rhumerus -53.6632 -28.2653 1.56317
rradius 113.692
rwrist -11.9595
rhand 5.0468 -41.1827
rfingers 7.12502
rthumb 30.4146 -68.6941
lclavicle -1.51076e-014 -2.54444e-014
lhumerus -44.6632 15.3227 26.0939
lradius 109.795
lwrist 4.51967
lhand -28.273 -8.42799
lfingers 7.12502
lthumb -1.6496 21.5454
rfemur -20.1172 9.58746 21.1327
rtibia 32.0138
rfoot -21.8813 -12.1635
rtoes -0.0806631
lfemur -36.1383 -15.4879 -4.66663
ltibia 38.5133
lfoot -2.40202 14.9842
ltoes -16.1022
134
root 14.59 15.877 -2.67007 -165.937 -82.198 177.453
lowerback 6.59535 1.89028 -7.79717
upperback 1.30532 1.65885 -4.68574
thorax -2.4397 0.78806 -0.632662
lowerneck -2.60742 12.4431 4.64321
upperneck 24.8189 17.2691 -5.96239
head 9.16528 7.66298 -1.24469
rclavicle 1.90833e-014 -1.90833e-014
rhumerus -54.0042 -28.7897 2.15393
rradius 113.79
rwrist -12.3995
rhand 2.91407 -42.9932
rfingers 7.12502
rthumb 28.3784 -70.8621
lclavicle 1.90833e-014 -1.90833e-014
lhumerus -43.3988 14.6602 26.9492
lradius 110.155
lwrist 4.06134
lhand -28.3667 -8.66879
lfingers 7.12502
lthumb -1.74009 21.3039
rfemur -19.3028 9.14197 21.5484
rtibia 31.5576
rfoot -21.7702 -11.9132
rtoes 1.0486
lfemur -36.2879 -16.216 -4.30028
ltibia 39.2534
lfoot -1.81853 14.4843
ltoes -14.4977
135
root 14.6349 15.8895 -2.72033 -167.071 -82.6605 178.14
lowerback 7.17403 1.74359 -7.7432
upperback 1.40002 1.40304 -4.69561
thorax -2.65119 0.662407 -0.66355
lowerneck -2.4051 12.4766 4.50812
upperneck 24.7658 17.2659 -5.74116
head 9.07519 7.67611 -1.17037
rclavicle 3.97569e-015 7.4743e-014
rhumerus -54.2637 -28.8937 2.63435
rradius 113.953
rwrist -13.0174
rhand 2.70521 -43.052
rfingers 7.12502
rthumb 28.1788 -70.954
lclavicle 3.97569e-015 7.4743e-014
lhumerus -42.4532 13.5017 27.5926
lradius 110.558
lwrist 3.83421
lhand -28.0125 -8.90566
lfingers 7.12502
lthumb -1.39802 21.0695
rfemur -18.609 8.57082 22.0311
rtibia 31.0142
rfoot -21.5272 -11.7129
rtoes 1.31673
lfemur -36.6691 -16.9812 -3.77289
ltibia 40.0976
lfoot -1.16346 14.0055
ltoes -12.2042
